<svg width="201" height="167" viewBox="0 0 201 167" version="1.1" xmlns="http://www.w3.org/2000/svg" xmlns:xlink="http://www.w3.org/1999/xlink">
<title>logo</title>
<desc>Created using Figma</desc>
<g id="Canvas" transform="translate(-1609 -183)">
<g id="logo">
<g id="OSB Open Space Blog">
<use xlink:href="#path0_fill" transform="translate(1611.66 183.032)" fill="#FFFFFF"/>
<use xlink:href="#path1_fill" transform="translate(1611.66 183.032)" fill="#FFFFFF"/>
<use xlink:href="#path2_fill" transform="translate(1611.66 183.032)" fill="#FFFFFF"/>
</g>
<g id="OSB Open Space Blog">
<use xlink:href="#path3_fill" transform="translate(1609.22 281.99)" fill="#FFFFFF" fill-opacity="0.6"/>
<use xlink:href="#path4_fill" transform="translate(1609.22 281.99)" fill="#FFFFFF" fill-opacity="0.6"/>
<use xlink:href="#path5_fill" transform="translate(1609.22 281.99)" fill="#FFFFFF" fill-opacity="0.6"/>
<use xlink:href="#path6_fill" transform="translate(1609.22 281.99)" fill="#FFFFFF" fill-opacity="0.6"/>
<use xlink:href="#path7_fill" transform="translate(1609.22 281.99)" fill="#FFFFFF" fill-opacity="0.6"/>
<use xlink:href="#path8_fill" transform="translate(1609.22 281.99)" fill="#FFFFFF" fill-opacity="0.6"/>
<use xlink:href="#path9_fill" transform="translate(1609.22 281.99)" fill="#FFFFFF" fill-opacity="0.6"/>
<use xlink:href="#path10_fill" transform="translate(1609.22 281.99)" fill="#FFFFFF" fill-opacity="0.6"/>
<use xlink:href="#path11_fill" transform="translate(1609.22 281.99)" fill="#FFFFFF" fill-opacity="0.6"/>
<use xlink:href="#path12_fill" transform="translate(1609.22 281.99)" fill="#FFFFFF" fill-opacity="0.6"/>
<use xlink:href="#path13_fill" transform="translate(1609.22 281.99)" fill="#FFFFFF" fill-opacity="0.6"/>
<use xlink:href="#path14_fill" transform="translate(1609.22 281.99)" fill="#FFFFFF" fill-opacity="0.6"/>
<use xlink:href="#path15_fill" transform="translate(1609.22 281.99)" fill="#FFFFFF" fill-opacity="0.6"/>
</g>
</g>
</g>
<defs>
<path id="path0_fill" d="M 35.503 0.189408C 41.999 0.189408 47.9483 1.6731 53.3509 4.64049C 58.8179 7.60787 63.1271 11.6801 66.2786 16.8573C 69.4302 21.9713 71.0059 27.6219 71.0059 33.8093C 71.0059 39.9966 69.4302 45.7104 66.2786 50.9506C 63.1271 56.1278 58.8179 60.2316 53.3509 63.2621C 47.9483 66.2295 41.999 67.7132 35.503 67.7132C 29.007 67.7132 23.0255 66.2295 17.5585 63.2621C 12.1559 60.2316 7.87883 56.1278 4.7273 50.9506C 1.57577 45.7104 0 39.9966 0 33.8093C 0 27.6219 1.57577 21.9713 4.7273 16.8573C 7.87883 11.6801 12.1559 7.60787 17.5585 4.64049C 22.9612 1.6731 28.9426 0.189408 35.503 0.189408ZM 35.5994 8.33394C 30.9043 8.33394 26.5307 9.47038 22.4788 11.7433C 18.4911 14.0162 15.3074 17.1098 12.9277 21.0242C 10.548 24.8755 9.35812 29.1372 9.35812 33.8093C 9.35812 38.4813 10.548 42.7746 12.9277 46.689C 15.3074 50.6034 18.4911 53.7286 22.4788 56.0647C 26.5307 58.3376 30.9043 59.474 35.5994 59.474C 40.2946 59.474 44.6038 58.3376 48.5272 56.0647C 52.5148 53.7286 55.6663 50.6034 57.9817 46.689C 60.3615 42.7746 61.5513 38.4813 61.5513 33.8093C 61.5513 29.1372 60.3615 24.8755 57.9817 21.0242C 55.6663 17.1098 52.5148 14.0162 48.5272 11.7433C 44.6038 9.47038 40.2946 8.33394 35.5994 8.33394Z"/>
<path id="path1_fill" d="M 123.732 14.5844C 120.58 12.6272 117.3 11.175 113.892 10.228C 110.547 9.21784 107.46 8.71275 104.63 8.71275C 100.707 8.71275 97.555 9.47038 95.1753 10.9856C 92.8599 12.4378 91.7022 14.4581 91.7022 17.0467C 91.7022 19.3827 92.4097 21.3084 93.8246 22.8236C 95.2396 24.2757 96.9762 25.4438 99.0343 26.3277C 101.092 27.1484 103.955 28.127 107.621 29.2635C 112.187 30.6525 115.885 31.9783 118.715 33.241C 121.545 34.5038 123.957 36.3978 125.951 38.9233C 127.945 41.3856 128.942 44.6686 128.942 48.7725C 128.942 52.5606 127.88 55.8753 125.758 58.7164C 123.7 61.5575 120.773 63.7672 116.979 65.3456C 113.248 66.8609 108.939 67.6185 104.051 67.6185C 99.0986 67.6185 94.2749 66.6715 89.5797 64.7774C 84.8846 62.8833 80.8326 60.3579 77.4238 57.2011L 81.5723 49.3407C 84.7881 52.4343 88.3898 54.8335 92.3775 56.5382C 96.4295 58.1797 100.353 59.0005 104.148 59.0005C 108.65 59.0005 112.187 58.1481 114.76 56.4435C 117.397 54.6757 118.715 52.3081 118.715 49.3407C 118.715 47.0047 118.008 45.079 116.593 43.5638C 115.178 42.0485 113.377 40.8489 111.19 39.965C 109.068 39.0811 106.173 38.1025 102.507 37.0292C 98.0052 35.7033 94.3392 34.409 91.5092 33.1463C 88.6793 31.8836 86.2674 30.0211 84.2736 27.5588C 82.3441 25.0965 81.3793 21.845 81.3793 17.8043C 81.3793 14.2687 82.3762 11.1435 84.37 8.42864C 86.3639 5.7138 89.1617 3.63031 92.7634 2.17819C 96.3652 0.726063 100.546 0 105.305 0C 109.357 0 113.313 0.599791 117.172 1.79937C 121.095 2.93582 124.568 4.48265 127.591 6.43986L 123.732 14.5844Z"/>
<path id="path2_fill" d="M 172.569 0.757631C 179.451 0.757631 184.853 2.24132 188.777 5.20871C 192.764 8.11296 194.758 12.1537 194.758 17.3308C 194.758 21.119 193.665 24.3389 191.478 26.9906C 189.291 29.5792 186.301 31.3154 182.506 32.1993C 187.201 32.8938 190.867 34.7563 193.504 37.7868C 196.205 40.7542 197.556 44.4792 197.556 48.9619C 197.556 54.6441 195.369 59.0952 190.996 62.3151C 186.687 65.4719 180.705 67.0503 173.051 67.0503L 143.723 67.0503L 143.723 0.757631L 172.569 0.757631ZM 172.087 28.8847C 176.267 28.8847 179.483 28.0323 181.734 26.3277C 184.05 24.5599 185.207 22.066 185.207 18.8461C 185.207 15.6893 184.05 13.2585 181.734 11.5539C 179.483 9.8492 176.267 9.02843 172.087 9.09157L 152.984 9.09157L 152.984 28.8847L 172.087 28.8847ZM 172.087 58.7164C 177.103 58.7795 181.027 57.864 183.857 55.97C 186.687 54.0127 188.101 51.2979 188.101 47.8254C 188.101 44.4792 186.687 41.8591 183.857 39.965C 181.027 38.0709 177.103 37.1239 172.087 37.1239L 152.984 37.1239L 152.984 58.7164L 172.087 58.7164Z"/>
<path id="path3_fill" d="M 11.8343 0.0631388C 13.9997 0.0631388 15.9828 0.557701 17.7836 1.54683C 19.606 2.53596 21.0424 3.89339 22.0929 5.6191C 23.1434 7.32377 23.6686 9.20732 23.6686 11.2698C 23.6686 13.3322 23.1434 15.2368 22.0929 16.9836C 21.0424 18.7093 19.606 20.0772 17.7836 21.0874C 15.9828 22.0765 13.9997 22.5711 11.8343 22.5711C 9.66898 22.5711 7.67516 22.0765 5.85284 21.0874C 4.05197 20.0772 2.62628 18.7093 1.57577 16.9836C 0.525255 15.2368 0 13.3322 0 11.2698C 0 9.20732 0.525255 7.32377 1.57577 5.6191C 2.62628 3.89339 4.05197 2.53596 5.85284 1.54683C 7.65372 0.557701 9.64754 0.0631388 11.8343 0.0631388ZM 11.8665 2.77798C 10.3014 2.77798 8.84358 3.1568 7.49293 3.91443C 6.16371 4.67206 5.10248 5.70328 4.30924 7.00809C 3.51599 8.29185 3.11937 9.71241 3.11937 11.2698C 3.11937 12.8271 3.51599 14.2582 4.30924 15.563C 5.10248 16.8678 6.16371 17.9095 7.49293 18.6882C 8.84358 19.4458 10.3014 19.8247 11.8665 19.8247C 13.4315 19.8247 14.8679 19.4458 16.1757 18.6882C 17.5049 17.9095 18.5554 16.8678 19.3272 15.563C 20.1205 14.2582 20.5171 12.8271 20.5171 11.2698C 20.5171 9.71241 20.1205 8.29185 19.3272 7.00809C 18.5554 5.70328 17.5049 4.67206 16.1757 3.91443C 14.8679 3.1568 13.4315 2.77798 11.8665 2.77798Z"/>
<path id="path4_fill" d="M 37.2564 5.55596C 38.8428 5.55596 40.2578 5.91373 41.5013 6.62927C 42.7447 7.34481 43.7095 8.34446 44.3955 9.62822C 45.0816 10.912 45.4246 12.3852 45.4246 14.0477C 45.4246 15.6893 45.0816 17.1519 44.3955 18.4357C 43.7309 19.6984 42.7769 20.6875 41.5334 21.4031C 40.3114 22.0976 38.9072 22.4448 37.3207 22.4448C 35.8843 22.4448 34.6194 22.1502 33.526 21.5609C 32.4326 20.9716 31.575 20.1298 30.9533 19.0355L 30.9533 28.4743L 27.9626 28.4743L 27.9626 5.65066L 30.9533 5.65066L 30.9533 8.9653C 31.575 7.87094 32.4219 7.02913 33.4938 6.43986C 34.5872 5.85059 35.8414 5.55596 37.2564 5.55596ZM 36.6775 19.8878C 37.7709 19.8878 38.7464 19.6353 39.6039 19.1302C 40.4829 18.6251 41.1583 17.9201 41.6299 17.0151C 42.123 16.1102 42.3696 15.0895 42.3696 13.953C 42.3696 12.8376 42.123 11.8275 41.6299 10.9225C 41.1368 10.0176 40.4615 9.31254 39.6039 8.80746C 38.7464 8.30237 37.7709 8.04983 36.6775 8.04983C 35.5841 8.04983 34.5979 8.30237 33.7189 8.80746C 32.8614 9.31254 32.186 10.0176 31.6929 10.9225C 31.1998 11.8275 30.9533 12.8376 30.9533 13.953C 30.9533 15.1105 31.1998 16.1417 31.6929 17.0467C 32.186 17.9306 32.8614 18.6251 33.7189 19.1302C 34.5979 19.6353 35.5841 19.8878 36.6775 19.8878Z"/>
<path id="path5_fill" d="M 56.4143 5.55596C 59.0513 5.55596 61.0451 6.32411 62.3957 7.86042C 63.7464 9.37568 64.4217 11.4907 64.4217 14.2056C 64.4217 14.6265 64.411 14.9422 64.3896 15.1526L 50.9473 15.1526C 51.1832 16.6468 51.8156 17.8359 52.8447 18.7198C 53.8952 19.6037 55.1815 20.0456 56.7037 20.0456C 57.7113 20.0456 58.6439 19.8668 59.5015 19.509C 60.3805 19.1512 61.1416 18.6461 61.7847 17.9937L 63.4248 19.6668C 62.5887 20.5507 61.5811 21.2347 60.4019 21.7187C 59.2228 22.2028 57.915 22.4448 56.4786 22.4448C 54.8063 22.4448 53.3163 22.0976 52.0086 21.4031C 50.7222 20.6875 49.7146 19.6879 48.9857 18.4041C 48.2782 17.1203 47.9244 15.6577 47.9244 14.0162C 47.9244 12.3746 48.2782 10.9225 48.9857 9.65979C 49.7146 8.37603 50.7222 7.37638 52.0086 6.66084C 53.2949 5.92426 54.7635 5.55596 56.4143 5.55596ZM 61.7204 12.8797C 61.6347 11.3645 61.1201 10.1754 60.1768 9.31254C 59.2335 8.42864 57.99 7.98669 56.4464 7.98669C 54.9457 7.98669 53.6915 8.42864 52.6839 9.31254C 51.6977 10.1964 51.1081 11.3855 50.9152 12.8797L 61.7204 12.8797Z"/>
<path id="path6_fill" d="M 77.9569 5.55596C 79.9508 5.55596 81.5158 6.13471 82.6521 7.2922C 83.7883 8.42865 84.3565 10.007 84.3565 12.0274L 84.3565 22.3501L 81.3657 22.3501L 81.3657 12.8166C 81.3657 11.4066 80.9584 10.3122 80.1437 9.53352C 79.3505 8.7338 78.2464 8.33394 76.8314 8.33394C 75.3092 8.35499 74.0658 8.83903 73.101 9.78607C 72.1577 10.7121 71.6217 11.9222 71.4931 13.4164L 71.4931 22.3501L 68.5023 22.3501L 68.5023 5.65066L 71.4931 5.65066L 71.4931 9.18627C 72.6293 6.80816 74.784 5.59805 77.9569 5.55596Z"/>
<path id="path7_fill" d="M 111.559 4.86146C 110.509 4.20906 109.415 3.72502 108.279 3.40934C 107.164 3.07261 106.135 2.90425 105.192 2.90425C 103.884 2.90425 102.834 3.1568 102.04 3.66189C 101.269 4.14593 100.883 4.81937 100.883 5.68223C 100.883 6.46091 101.118 7.10279 101.59 7.60788C 102.062 8.09192 102.641 8.48126 103.327 8.77589C 104.013 9.04948 104.967 9.37568 106.189 9.75449C 107.711 10.2175 108.944 10.6594 109.887 11.0803C 110.83 11.5013 111.634 12.1326 112.299 12.9744C 112.964 13.7952 113.296 14.8895 113.296 16.2575C 113.296 17.5202 112.942 18.6251 112.235 19.5721C 111.549 20.5192 110.573 21.2557 109.308 21.7819C 108.065 22.287 106.628 22.5395 104.999 22.5395C 103.348 22.5395 101.74 22.2238 100.175 21.5925C 98.6101 20.9611 97.2595 20.1193 96.1232 19.067L 97.506 16.4469C 98.578 17.4781 99.7786 18.2778 101.108 18.8461C 102.458 19.3932 103.766 19.6668 105.031 19.6668C 106.532 19.6668 107.711 19.3827 108.569 18.8145C 109.448 18.2252 109.887 17.436 109.887 16.4469C 109.887 15.6682 109.651 15.0263 109.18 14.5213C 108.708 14.0162 108.108 13.6163 107.379 13.3217C 106.671 13.027 105.706 12.7008 104.484 12.3431C 102.984 11.9011 101.762 11.4697 100.818 11.0488C 99.875 10.6279 99.0711 10.007 98.4065 9.18627C 97.7633 8.36551 97.4417 7.28168 97.4417 5.93478C 97.4417 4.75624 97.774 3.7145 98.4386 2.80955C 99.1032 1.90461 100.036 1.2101 101.236 0.726063C 102.437 0.242021 103.831 0 105.417 0C 106.768 0 108.086 0.199932 109.373 0.599792C 110.68 0.978608 111.838 1.49422 112.846 2.14662L 111.559 4.86146Z"/>
<path id="path8_fill" d="M 127.388 5.55596C 128.975 5.55596 130.389 5.91373 131.633 6.62927C 132.876 7.34481 133.841 8.34446 134.527 9.62822C 135.213 10.912 135.556 12.3852 135.556 14.0477C 135.556 15.6893 135.213 17.1519 134.527 18.4357C 133.863 19.6984 132.909 20.6875 131.665 21.4031C 130.443 22.0976 129.039 22.4448 127.452 22.4448C 126.016 22.4448 124.751 22.1502 123.658 21.5609C 122.564 20.9716 121.707 20.1298 121.085 19.0355L 121.085 28.4743L 118.094 28.4743L 118.094 5.65066L 121.085 5.65066L 121.085 8.9653C 121.707 7.87094 122.554 7.02913 123.625 6.43986C 124.719 5.85059 125.973 5.55596 127.388 5.55596ZM 126.809 19.8878C 127.903 19.8878 128.878 19.6353 129.736 19.1302C 130.615 18.6251 131.29 17.9201 131.762 17.0151C 132.255 16.1102 132.501 15.0895 132.501 13.953C 132.501 12.8376 132.255 11.8275 131.762 10.9225C 131.268 10.0176 130.593 9.31254 129.736 8.80746C 128.878 8.30237 127.903 8.04983 126.809 8.04983C 125.716 8.04983 124.73 8.30237 123.851 8.80746C 122.993 9.31254 122.318 10.0176 121.825 10.9225C 121.332 11.8275 121.085 12.8376 121.085 13.953C 121.085 15.1105 121.332 16.1417 121.825 17.0467C 122.318 17.9306 122.993 18.6251 123.851 19.1302C 124.73 19.6353 125.716 19.8878 126.809 19.8878Z"/>
<path id="path9_fill" d="M 150.116 22.3501L 150.116 20.0141C 148.851 21.6556 146.868 22.4764 144.166 22.4764C 142.987 22.4764 141.947 22.2554 141.047 21.8135C 140.168 21.3715 139.482 20.7612 138.989 19.9825C 138.517 19.2038 138.281 18.3305 138.281 17.3624C 138.281 15.8682 138.839 14.6896 139.953 13.8268C 141.09 12.9429 142.665 12.4904 144.681 12.4693L 150.083 12.4693L 150.083 11.6801C 150.083 10.5016 149.708 9.59666 148.958 8.9653C 148.229 8.31289 147.157 7.98669 145.742 7.98669C 144.027 7.98669 142.28 8.58648 140.5 9.78607L 139.246 7.76571C 140.468 6.98704 141.594 6.42934 142.623 6.09261C 143.673 5.73484 144.917 5.55596 146.353 5.55596C 148.475 5.55596 150.116 6.07157 151.273 7.10279C 152.431 8.11296 153.021 9.53352 153.042 11.3645L 153.074 22.3501L 150.116 22.3501ZM 144.777 20.0456C 146.171 20.0456 147.35 19.7194 148.315 19.067C 149.301 18.3936 149.89 17.5097 150.083 16.4153L 150.083 14.7422L 145.099 14.7422C 143.748 14.7422 142.741 14.9422 142.076 15.342C 141.433 15.7419 141.111 16.3732 141.111 17.2361C 141.111 18.099 141.443 18.7829 142.108 19.288C 142.773 19.7931 143.662 20.0456 144.777 20.0456Z"/>
<path id="path10_fill" d="M 170.345 10.1017C 168.994 8.81798 167.376 8.1761 165.489 8.1761C 164.374 8.1761 163.377 8.41812 162.498 8.90216C 161.641 9.3862 160.965 10.0702 160.472 10.9541C 159.979 11.838 159.733 12.8587 159.733 14.0162C 159.733 15.1737 159.969 16.1944 160.44 17.0783C 160.933 17.9622 161.598 18.6567 162.434 19.1617C 163.292 19.6458 164.267 19.8878 165.36 19.8878C 166.454 19.8878 167.44 19.7089 168.319 19.3512C 169.198 18.9934 169.927 18.4778 170.506 17.8043L 172.21 19.509C 171.438 20.456 170.452 21.1821 169.252 21.6872C 168.072 22.1923 166.733 22.4448 165.232 22.4448C 163.581 22.4448 162.112 22.087 160.826 21.3715C 159.54 20.656 158.532 19.6668 157.803 18.4041C 157.096 17.1203 156.742 15.6577 156.742 14.0162C 156.742 12.3746 157.096 10.912 157.803 9.62822C 158.532 8.34446 159.54 7.34481 160.826 6.62927C 162.112 5.91373 163.581 5.55596 165.232 5.55596C 166.668 5.55596 167.955 5.77693 169.091 6.21888C 170.249 6.63979 171.213 7.26063 171.985 8.08139L 170.345 10.1017Z"/>
<path id="path11_fill" d="M 182.536 5.55596C 185.173 5.55596 187.167 6.32411 188.517 7.86042C 189.868 9.37568 190.543 11.4907 190.543 14.2056C 190.543 14.6265 190.533 14.9422 190.511 15.1526L 177.069 15.1526C 177.305 16.6468 177.937 17.8359 178.966 18.7198C 180.017 19.6037 181.303 20.0456 182.825 20.0456C 183.833 20.0456 184.765 19.8668 185.623 19.509C 186.502 19.1512 187.263 18.6461 187.906 17.9937L 189.546 19.6668C 188.71 20.5507 187.703 21.2347 186.523 21.7187C 185.344 22.2028 184.037 22.4448 182.6 22.4448C 180.928 22.4448 179.438 22.0976 178.13 21.4031C 176.844 20.6875 175.836 19.6879 175.107 18.4041C 174.4 17.1203 174.046 15.6577 174.046 14.0162C 174.046 12.3746 174.4 10.9225 175.107 9.65979C 175.836 8.37603 176.844 7.37638 178.13 6.66084C 179.416 5.92426 180.885 5.55596 182.536 5.55596ZM 187.842 12.8797C 187.756 11.3645 187.242 10.1754 186.298 9.31254C 185.355 8.42864 184.112 7.98669 182.568 7.98669C 181.067 7.98669 179.813 8.42864 178.805 9.31254C 177.819 10.1964 177.23 11.3855 177.037 12.8797L 187.842 12.8797Z"/>
<path id="path12_fill" d="M 11.6092 38.726C 13.9032 38.726 15.7041 39.2205 17.0118 40.2097C 18.3411 41.1778 19.0057 42.5246 19.0057 44.2504C 19.0057 45.5131 18.6412 46.5864 17.9123 47.4703C 17.1833 48.3332 16.1864 48.9119 14.9215 49.2065C 16.4866 49.438 17.7086 50.0589 18.5876 51.069C 19.488 52.0582 19.9383 53.2998 19.9383 54.7941C 19.9383 56.6881 19.2093 58.1718 17.7515 59.2451C 16.3151 60.2974 14.3212 60.8235 11.77 60.8235L 1.99383 60.8235L 1.99383 38.726L 11.6092 38.726ZM 11.4484 48.1017C 12.842 48.1017 13.9139 47.8175 14.6643 47.2493C 15.4361 46.66 15.822 45.8287 15.822 44.7554C 15.822 43.7032 15.4361 42.8929 14.6643 42.3247C 13.9139 41.7565 12.842 41.4829 11.4484 41.504L 5.08104 41.504L 5.08104 48.1017L 11.4484 48.1017ZM 11.4484 58.0455C 13.1207 58.0666 14.4284 57.7614 15.3718 57.1301C 16.3151 56.4777 16.7867 55.5727 16.7867 54.4152C 16.7867 53.2998 16.3151 52.4264 15.3718 51.7951C 14.4284 51.1637 13.1207 50.8481 11.4484 50.8481L 5.08104 50.8481L 5.08104 58.0455L 11.4484 58.0455Z"/>
<path id="path13_fill" d="M 24.7593 37.4001L 27.75 37.4001L 27.75 60.8235L 24.7593 60.8235L 24.7593 37.4001Z"/>
<path id="path14_fill" d="M 40.8435 44.0294C 42.5372 44.0294 44.0379 44.3871 45.3457 45.1027C 46.6749 45.8182 47.704 46.8179 48.4329 48.1017C 49.1833 49.3644 49.5585 50.8165 49.5585 52.458C 49.5585 54.0996 49.1833 55.5622 48.4329 56.846C 47.704 58.1297 46.6749 59.1294 45.3457 59.8449C 44.0379 60.5605 42.5372 60.9182 40.8435 60.9182C 39.1284 60.9182 37.6062 60.5605 36.277 59.8449C 34.9693 59.1294 33.9402 58.1403 33.1898 56.8775C 32.4609 55.5938 32.0964 54.1206 32.0964 52.458C 32.0964 50.8165 32.4609 49.3644 33.1898 48.1017C 33.9402 46.8179 34.9693 45.8182 36.277 45.1027C 37.6062 44.3871 39.1284 44.0294 40.8435 44.0294ZM 40.8435 46.5864C 39.7287 46.5864 38.7318 46.8389 37.8528 47.344C 36.9952 47.8491 36.3199 48.5541 35.8268 49.4591C 35.3552 50.343 35.1193 51.3531 35.1193 52.4896C 35.1193 53.6471 35.3552 54.6783 35.8268 55.5833C 36.3199 56.4882 36.9952 57.1932 37.8528 57.6983C 38.7318 58.1823 39.7287 58.4244 40.8435 58.4244C 41.9369 58.4244 42.9124 58.1823 43.77 57.6983C 44.649 57.1932 45.3243 56.4882 45.7959 55.5833C 46.289 54.6783 46.5356 53.6471 46.5356 52.4896C 46.5356 51.3531 46.289 50.343 45.7959 49.4591C 45.3243 48.5541 44.649 47.8491 43.77 47.344C 42.9124 46.8389 41.9369 46.5864 40.8435 46.5864Z"/>
<path id="path15_fill" d="M 68.7923 44.1241L 68.7923 59.1189C 68.7923 60.7183 68.4278 62.1178 67.6989 63.3174C 66.9914 64.517 65.9838 65.4324 64.676 66.0638C 63.3682 66.7162 61.846 67.0424 60.1095 67.0424C 57.6011 67.0424 55.2643 66.2637 53.0989 64.7064L 54.4174 62.5598C 55.2535 63.2332 56.1218 63.7278 57.0223 64.0434C 57.9227 64.3802 58.9089 64.5485 59.9808 64.5485C 61.7388 64.5485 63.1431 64.0645 64.1936 63.0964C 65.2441 62.1283 65.7694 60.834 65.7694 59.2136L 65.7694 56.8775C 65.1691 57.8877 64.3544 58.6769 63.3253 59.2451C 62.2963 59.7923 61.1171 60.0659 59.7879 60.0659C 58.2657 60.0659 56.9151 59.7292 55.7359 59.0557C 54.5782 58.3612 53.6778 57.4037 53.0346 56.183C 52.3914 54.9624 52.0699 53.5629 52.0699 51.9845C 52.0699 50.4271 52.3914 49.0487 53.0346 47.8491C 53.6778 46.6495 54.5782 45.713 55.7359 45.0396C 56.9151 44.3661 58.2657 44.0294 59.7879 44.0294C 61.1386 44.0294 62.3177 44.303 63.3253 44.8502C 64.3544 45.3973 65.1691 46.176 65.7694 47.1862L 65.7694 44.1241L 68.7923 44.1241ZM 60.3667 57.6983C 61.4173 57.6983 62.3498 57.4563 63.1645 56.9722C 63.9792 56.4882 64.6117 55.8253 65.0619 54.9835C 65.5335 54.1206 65.7694 53.1525 65.7694 52.0792C 65.7694 50.9849 65.5335 50.0168 65.0619 49.175C 64.6117 48.3121 63.9792 47.6386 63.1645 47.1546C 62.3498 46.6706 61.4173 46.4286 60.3667 46.4286C 59.3162 46.4286 58.3729 46.6706 57.5368 47.1546C 56.7221 47.6386 56.0789 48.3121 55.6073 49.175C 55.1356 50.0168 54.8998 50.9849 54.8998 52.0792C 54.9212 53.7207 55.4358 55.0676 56.4434 56.1199C 57.451 57.1722 58.7588 57.6983 60.3667 57.6983Z"/>
</defs>
</svg>
